# xmcd
# Copyright (C) 1995-1998 Ti Kan
#
# Track frame offsets:
#       150
#       9715
#       18465
#       26287
#       38447
#       48205
#       58750
#       68550
#       78650
#       86742
#       99862
#       114595
#       125967
#       138360
#
# Disc length: 2004 seconds
#
# Revision: 0
# Processed by: cddbd v1.5.2PL0 Copyright (c) Steve Scherf et al.
# Submitted via: CD-Import v1.0
#
DISCID=af07d20e
DTITLE=Turtles - It Ain't Me Babe
DYEAR=1965
DGENRE=
TTITLE0=Wanderin' Kind
TTITLE1=It Was A Very Good Year
TTITLE2=Your Maw Said You Cried
TTITLE3=Eve Of Destruction
TTITLE4=Glitter And Gold
TTITLE5=Let The Cold Winds Blow
TTITLE6=It Ain't Me Babe
TTITLE7=A Walk In The Sun
TTITLE8=Last Laugh
TTITLE9=Love Minus Zero
TTITLE10=Like A Rolling Stone
TTITLE11=We'll Meet Again
TTITLE12=Grim Reaper Of Love
TTITLE13=So Goes Love
EXTD=
EXTT0=
EXTT1=
EXTT2=
EXTT3=
EXTT4=
EXTT5=
EXTT6=
EXTT7=
EXTT8=
EXTT9=
EXTT10=
EXTT11=
EXTT12=
EXTT13=
PLAYORDER=
